# xmcd
#
# Track frame offsets:
#	150
#	18939
#	31798
#	50878
#	66524
#	86775
#	99314
#	117602
#	133432
#	151758
#	169055
#	183992
#	200539
#	215910
#	230699
#	244406
#	261776
#	278845
#
# Disc length: 3916 seconds
#
# Revision: 1
# Processed by: cddbd v1.5.2PL0 Copyright (c) Steve Scherf et al.
# Submitted via: audiograbber 1.83.01
#
DISCID=140f4a12
DTITLE=Various Artist - STC VOL 5
DYEAR=1900
DGENRE=COUNTRY
TTITLE0=Alabama - Mountain Music
TTITLE1=Bayou City Beats - Cotton-Eyed Joe
TTITLE2=Tracy Byrd - Keeper Of The Stars (Re-cut Version)
TTITLE3=Mary Chapin Carpenter - I Feel Lucky
TTITLE4=Steve Earle - Copperhead Road
TTITLE5=Donna Fargo - Funny Face
TTITLE6=Collin Raye - One Boy One Girl
TTITLE7=Kenny Rogers - The Gambler
TTITLE8=Don Williams - I Believe In You
TTITLE9=Reba McEntire - Is There Life Out There
TTITLE10=George Strait - Check Yes Or No
TTITLE11=Trisha Yearwood - Believe Me Baby (I Lied)
TTITLE12=Martina McBride - Independence Day
TTITLE13=Billy Dean - Somewhere In My Broken Heart
TTITLE14=Clint Black - A Better Man
TTITLE15=John Berry - Your Love Amazes Me
TTITLE16=Mavericks - All You Ever Do Is Bring Me Down
TTITLE17=Pam Tillis - Maybe It Was Memphis
EXTD=
EXTT0=
EXTT1=
EXTT2=
EXTT3=
EXTT4=
EXTT5=
EXTT6=
EXTT7=
EXTT8=
EXTT9=
EXTT10=
EXTT11=
EXTT12=
EXTT13=
EXTT14=
EXTT15=
EXTT16=
EXTT17=
PLAYORDER=
